<?xml version="1.0" encoding="UTF-8"?>
<svg width="60" height="60" viewBox="0 0 24 24" fill="none" xmlns="http://www.w3.org/2000/svg">
  <path d="M12 2C6.48 2 2 6.48 2 12C2 17.52 6.48 22 12 22C17.52 22 22 17.52 22 12C22 6.48 17.52 2 12 2Z" 
        stroke="#2d6a4f" stroke-width="1.8" stroke-linecap="round" stroke-linejoin="round"/>
  <path d="M12 16C14.2091 16 16 14.2091 16 12C16 9.79086 14.2091 8 12 8C9.79086 8 8 9.79086 8 12C8 14.2091 9.79086 16 12 16Z" 
        fill="#95d5b2"/>
  <path d="M12 8V6M12 18V16M6 12H8M16 12H18M8.34 8.34L7.27 7.27M16.73 16.73L15.66 15.66M8.34 15.66L7.27 16.73M16.73 7.27L15.66 8.34" 
        stroke="#2d6a4f" stroke-width="1.5" stroke-linecap="round"/>
</svg>