<?xml version="1.0" standalone="no"?>
<!DOCTYPE svg PUBLIC "-//W3C//DTD SVG 20010904//EN"
 "http://www.w3.org/TR/2001/REC-SVG-20010904/DTD/svg10.dtd">
<svg version="1.0" xmlns="http://www.w3.org/2000/svg"
 width="734.000000pt" height="736.000000pt" viewBox="0 0 734.000000 736.000000"
 preserveAspectRatio="xMidYMid meet">

<g transform="translate(0.000000,736.000000) scale(0.100000,-0.100000)"
fill="#000000" stroke="none">
<path d="M3510 7005 c0 -122 3 -164 16 -190 39 -83 197 -88 237 -7 16 31 31
319 18 340 -5 8 -21 12 -37 10 l-29 -3 -5 -153 c-4 -137 -7 -155 -24 -168 -23
-16 -54 -18 -76 -4 -12 7 -16 42 -20 167 l-5 158 -37 3 -38 3 0 -156z"/>
<path d="M3260 7143 c-25 -3 -48 -7 -52 -11 -6 -7 17 -321 27 -369 4 -19 12
-23 41 -23 l36 0 -4 82 -3 83 54 6 c59 8 75 18 69 45 -3 16 -13 19 -68 19
l-65 0 -5 48 c-4 26 -4 50 -1 52 2 3 18 5 35 5 17 0 48 3 69 6 33 6 37 10 37
35 l0 29 -62 -2 c-35 -1 -83 -3 -108 -5z"/>
<path d="M3862 7124 c3 -25 9 -30 46 -38 43 -9 43 -10 38 -45 -12 -82 -27
-274 -22 -287 8 -21 64 -18 70 4 2 9 10 73 16 142 16 179 12 168 68 172 40 3
47 6 50 25 5 32 -20 40 -152 49 l-118 7 4 -29z"/>
<path d="M4213 7108 c-11 -13 -63 -268 -63 -307 0 -60 71 -120 143 -121 45 0
94 26 111 59 21 39 71 293 63 315 -4 10 -18 16 -37 16 -16 0 -30 -2 -30 -4 0
-17 -53 -257 -61 -278 -14 -33 -53 -44 -85 -23 -31 20 -31 51 2 206 14 67 22
125 17 129 -17 16 -50 20 -60 8z"/>
<path d="M2840 7070 c-13 -8 -11 -24 14 -125 16 -63 27 -118 24 -121 -3 -3
-16 11 -28 31 -28 45 -128 168 -143 176 -7 3 -27 2 -45 -3 -26 -7 -31 -13 -27
-31 13 -60 77 -334 81 -349 6 -21 33 -23 56 -5 15 11 15 21 -7 117 -13 58 -27
113 -30 123 -12 30 12 19 32 -15 11 -18 48 -68 82 -111 57 -71 65 -78 94 -75
28 3 32 7 34 33 1 17 -17 104 -40 195 -36 141 -45 165 -62 168 -11 1 -27 -2
-35 -8z"/>
<path d="M4535 6847 c-30 -95 -55 -180 -55 -189 0 -9 12 -19 27 -23 33 -8 49
10 65 72 22 89 61 79 72 -18 4 -34 11 -71 16 -84 9 -24 57 -42 72 -27 5 5 2
42 -7 87 -8 43 -14 79 -12 81 1 1 17 9 34 18 40 20 63 62 63 116 0 53 -34 89
-113 118 -105 40 -99 46 -162 -151z m180 70 c22 -18 25 -28 20 -50 -10 -39
-46 -61 -86 -52 -29 6 -31 10 -26 39 15 87 42 106 92 63z"/>
<path d="M2463 6963 l-21 -18 49 -130 c26 -71 48 -138 49 -147 0 -25 -36 -58
-63 -58 -37 0 -55 29 -98 150 -53 150 -55 153 -87 145 -15 -4 -30 -11 -33 -16
-3 -6 17 -73 44 -150 60 -169 83 -199 150 -199 119 0 181 73 152 177 -30 109
-91 258 -106 261 -9 1 -25 -5 -36 -15z"/>
<path d="M4989 6870 c-68 -20 -124 -91 -155 -195 -21 -73 -12 -119 30 -161 39
-39 91 -55 143 -44 76 17 163 153 163 254 0 91 -99 170 -181 146z m92 -93 c25
-46 -22 -182 -77 -226 -36 -28 -58 -26 -84 6 -27 35 -22 73 20 159 42 87 112
117 141 61z"/>
<path d="M1833 6690 c-87 -53 -87 -172 -1 -298 39 -57 81 -82 139 -82 91 0
155 73 144 164 -10 84 -76 190 -136 221 -40 21 -108 19 -146 -5z m120 -70 c34
-27 87 -134 87 -176 0 -72 -68 -87 -120 -27 -36 41 -80 127 -80 158 0 59 63
84 113 45z"/>
<path d="M5463 6605 c-60 -25 -89 -101 -59 -155 62 -116 59 -108 42 -135 -9
-14 -26 -25 -37 -25 -20 0 -64 39 -84 74 -9 16 -14 17 -33 7 -72 -38 51 -163
146 -147 45 7 90 50 98 93 5 26 -1 49 -30 108 -40 82 -38 115 7 115 28 0 67
-26 67 -46 0 -18 44 -19 59 0 8 10 6 21 -12 46 -40 60 -111 88 -164 65z"/>
<path d="M3410 6525 c-8 -2 -67 -8 -130 -15 -121 -12 -246 -41 -283 -64 -22
-15 -247 -76 -276 -76 -9 0 -2 7 14 16 57 29 50 35 -15 10 -125 -48 -362 -156
-478 -217 -351 -187 -553 -340 -737 -562 -22 -26 -61 -62 -87 -78 -70 -45
-229 -251 -358 -463 l-23 -38 22 7 22 7 -22 -44 c-12 -23 -29 -54 -37 -67 -15
-22 -16 -22 -23 -5 -4 14 -22 -14 -68 -109 -140 -291 -209 -511 -241 -775 -61
-506 -63 -657 -11 -962 40 -238 60 -311 148 -545 172 -458 345 -737 638 -1030
174 -175 285 -266 483 -398 234 -157 446 -256 781 -367 324 -107 558 -144 901
-144 267 0 366 9 585 55 391 83 467 113 875 342 324 183 561 370 788 622 213
237 313 386 443 660 84 177 121 283 188 548 74 291 94 425 95 662 1 251 -42
548 -130 895 -70 277 -155 473 -316 733 -113 181 -220 315 -443 556 -136 146
-419 357 -602 450 -34 17 -93 51 -130 75 -194 124 -503 232 -807 281 -195 31
-680 56 -766 40z m563 -162 c20 -3 37 -10 37 -16 0 -16 -210 -2 -251 17 -33
16 -31 16 71 11 58 -3 122 -9 143 -12z m-98 -33 c212 -12 272 -20 395 -55 47
-14 133 -33 191 -44 58 -10 119 -25 135 -34 16 -8 51 -19 78 -26 52 -13 111
-39 103 -47 -2 -2 -23 3 -47 11 -70 25 -57 11 32 -35 85 -43 284 -165 373
-229 114 -81 311 -237 357 -283 28 -27 52 -48 54 -45 12 11 -16 43 -109 127
-155 140 -155 161 0 38 181 -144 491 -493 602 -678 28 -47 51 -89 51 -94 0
-20 -44 32 -90 109 -45 73 -170 213 -170 190 0 -6 36 -56 79 -113 43 -56 90
-126 104 -155 96 -197 147 -311 166 -367 22 -67 60 -144 61 -124 0 15 -31 102
-74 204 -20 47 -36 92 -36 100 -1 57 106 -174 170 -369 71 -216 74 -231 57
-231 -17 0 -5 -90 30 -219 20 -75 24 -106 18 -150 -4 -31 -10 -191 -15 -356
-6 -255 -11 -316 -30 -405 -13 -58 -26 -108 -29 -112 -4 -4 -36 12 -71 36 -36
23 -144 87 -240 140 -306 171 -418 256 -702 533 -216 210 -321 298 -503 420
-164 110 -253 182 -371 306 -120 124 -236 281 -350 474 -98 165 -134 207 -190
222 -50 13 -85 4 -163 -44 -94 -58 -161 -75 -161 -41 0 7 -9 32 -21 55 -26 54
-36 173 -20 223 l12 35 96 1 c175 2 246 47 323 205 70 146 115 194 203 218 50
13 43 30 -24 53 -74 25 -215 26 -289 2 -187 -62 -304 -195 -336 -381 -24 -137
-32 -143 -53 -43 -14 64 -72 161 -124 204 -80 68 -222 110 -337 101 -72 -6
-183 -43 -178 -59 2 -6 24 -16 49 -22 79 -21 114 -50 189 -164 39 -59 87 -118
105 -131 58 -40 159 -52 239 -30 55 15 64 0 59 -93 -4 -53 0 -86 12 -118 32
-86 32 -83 -6 -75 -19 4 -73 22 -120 41 -183 72 -240 40 -425 -240 -202 -306
-306 -406 -664 -639 -85 -56 -102 -72 -167 -164 -41 -56 -113 -139 -164 -187
l-92 -86 -67 0 c-129 0 -222 -78 -236 -196 l-6 -50 -104 -68 c-57 -37 -158
-100 -225 -141 -66 -42 -158 -102 -204 -135 -46 -33 -88 -60 -94 -60 -25 0
-53 145 -76 395 -21 220 -16 409 12 485 11 30 33 129 48 219 15 91 33 188 41
217 18 70 80 228 108 279 13 22 33 67 46 100 83 214 173 389 206 402 8 3 29
26 46 52 18 25 53 69 79 96 26 28 47 57 46 66 -3 25 150 204 252 296 103 92
140 118 123 86 -6 -10 -27 -34 -47 -53 -20 -19 -55 -57 -78 -85 -22 -27 16 5
84 72 178 175 265 244 282 226 3 -3 37 20 74 51 44 37 74 55 86 52 11 -3 39
11 70 35 61 46 112 66 302 121 139 40 183 56 115 44 -35 -7 -35 -7 -10 8 37
22 254 93 337 111 52 10 134 15 284 15 117 -1 214 2 217 5 8 8 105 6 317 -5z
m1099 -190 c178 -79 488 -278 607 -388 63 -58 329 -354 342 -381 4 -9 -45 39
-110 105 -132 137 -402 371 -508 443 -86 59 -214 134 -322 192 -46 24 -83 47
-83 52 0 10 2 10 74 -23z m-876 -387 c18 -4 20 -8 10 -14 -7 -5 -23 -9 -35 -9
-12 0 -27 -8 -32 -18 -5 -10 -30 -40 -56 -68 -25 -27 -62 -82 -81 -122 -38
-78 -83 -120 -152 -143 -43 -13 -64 -28 -57 -39 3 -4 -9 -10 -26 -14 -49 -9
-99 -7 -99 5 0 42 178 236 284 309 28 18 45 35 38 38 -19 6 -150 -68 -203
-116 -27 -24 -52 -42 -55 -39 -3 3 16 30 42 59 37 40 40 54 4 18 -3 -3 -16
-14 -29 -25 l-24 -20 11 21 c15 28 107 111 146 131 72 37 132 52 211 53 44 0
91 -3 103 -7z m-943 -137 c72 -19 123 -48 178 -100 45 -44 87 -101 87 -120 0
-4 -26 16 -58 46 -66 60 -166 114 -232 124 l-45 6 79 -46 c43 -25 103 -64 133
-86 52 -40 122 -123 123 -146 0 -14 -141 -27 -154 -14 -7 7 -6 10 2 10 21 0
13 18 -12 24 -24 6 -60 37 -109 94 -15 18 -32 30 -36 27 -5 -2 -27 20 -50 50
-37 49 -103 104 -141 117 -26 9 50 26 120 27 36 0 88 -5 115 -13z m449 -143
c-32 -48 -34 -50 -34 -29 0 15 42 66 54 66 3 0 -6 -17 -20 -37z m356 -634 c36
-42 76 -99 90 -125 90 -178 167 -299 243 -386 33 -38 55 -68 50 -68 -32 0
-260 282 -355 438 -56 93 -122 204 -127 215 -2 5 5 7 15 5 10 -2 47 -37 84
-79z m-720 54 c0 -9 -33 -48 -73 -87 -40 -39 -112 -114 -161 -166 -48 -52 -80
-81 -70 -65 127 212 160 256 228 306 44 32 76 38 76 12z m591 -388 c41 -65 43
-69 31 -61 -23 14 -99 132 -130 202 -50 110 -37 110 21 -1 29 -55 64 -118 78
-140z m-531 162 c-34 -87 -168 -323 -178 -313 -2 3 18 43 45 88 48 81 93 176
93 197 0 5 10 27 22 47 25 42 36 30 18 -19z m280 -29 c1 -43 103 -394 140
-479 17 -41 71 -257 69 -278 0 -3 -13 28 -28 69 -53 140 -86 215 -116 260 -61
95 -76 149 -82 306 -4 105 -3 144 5 144 7 0 12 -10 12 -22z m-492 -354 c-13
-25 -24 -40 -26 -35 -3 10 35 81 44 81 2 0 -6 -21 -18 -46z m1499 -199 c91
-42 162 -106 200 -180 21 -40 26 -65 27 -125 1 -92 -25 -153 -109 -250 -79
-93 -99 -135 -93 -203 2 -29 15 -76 29 -103 l24 -49 90 -2 c358 -9 681 -59
772 -118 31 -21 29 -28 -12 -48 -71 -34 -114 -38 -179 -16 -95 32 -302 59
-556 71 -376 18 -730 -11 -914 -74 -62 -22 -99 -18 -168 18 -40 21 -34 42 17
64 134 58 422 97 725 101 74 0 139 3 143 6 4 3 -7 22 -26 42 -19 21 -47 64
-62 96 -25 54 -27 67 -22 137 5 83 28 132 102 223 47 59 66 101 72 161 5 45 1
62 -21 107 -15 29 -49 79 -77 111 -68 80 -69 79 38 31z m1922 -153 c11 -61 23
-152 27 -201 15 -200 -56 -857 -97 -895 -9 -8 -10 -1 -5 32 4 29 3 41 -4 37
-15 -9 -12 11 9 87 11 36 24 117 31 180 6 62 15 151 21 198 14 127 11 399 -6
535 -8 65 -15 131 -15 145 1 50 19 -4 39 -118z m-2173 -84 c69 -47 97 -104 91
-184 -4 -54 -11 -72 -55 -137 -93 -138 -100 -169 -57 -243 14 -24 21 -45 16
-48 -16 -10 -95 58 -120 104 -23 40 -24 48 -13 97 7 35 27 77 54 116 57 81 78
129 78 175 0 38 -30 114 -49 126 -13 9 -15 26 -2 26 5 0 30 -15 57 -32z m616
-124 c30 -69 22 -138 -30 -244 -48 -96 -54 -150 -22 -190 20 -25 26 -50 13
-50 -20 0 -87 59 -109 95 -42 73 -33 118 44 208 56 66 78 126 68 187 -9 55 10
52 36 -6z m-2762 -124 l55 -7 -57 -3 c-61 -2 -131 -3 -173 -1 -14 1 -25 6 -25
11 0 12 118 12 200 0z m-495 -54 c-40 -38 -55 -100 -55 -229 0 -143 -16 -136
-24 11 -9 167 2 224 51 254 20 12 31 13 44 5 15 -9 13 -14 -16 -41z m682 48
c-3 -3 -12 -4 -19 -1 -8 3 -5 6 6 6 11 1 17 -2 13 -5z m1029 -30 c29 -30 34
-42 33 -82 l0 -47 -25 55 c-14 30 -37 67 -51 83 -23 23 -24 27 -9 27 10 0 34
-16 52 -36z m-98 -99 c18 -6 17 -368 -2 -384 -10 -8 -224 -10 -787 -9 l-774 3
-3 189 c-2 136 1 192 10 203 10 13 114 14 777 8 421 -4 772 -8 779 -10z
m-2588 -221 c18 -128 60 -365 76 -429 5 -19 4 -19 -9 -2 -16 20 -61 189 -83
312 -13 74 -20 284 -9 274 2 -3 14 -72 25 -155z m4585 95 c52 -54 46 -56 -17
-6 -21 16 -38 35 -38 43 0 8 1 14 3 14 1 0 25 -23 52 -51z m-1866 -117 c-5
-28 -7 -16 -7 43 0 66 2 72 8 37 3 -24 3 -60 -1 -80z m1581 78 c0 -5 -4 -10
-10 -10 -5 0 -10 5 -10 10 0 6 5 10 10 10 6 0 10 -4 10 -10z m-4143 -252 c4
-24 2 -38 -5 -38 -14 0 -32 64 -31 110 l1 35 15 -35 c8 -19 18 -52 20 -72z
m761 -138 c1 -126 -10 -183 -21 -115 -9 52 -9 189 0 240 6 36 7 38 14 15 4
-14 7 -77 7 -140z m1806 46 c2 -36 0 -69 -5 -72 -5 -3 -9 29 -9 72 0 93 9 93
14 0z m371 -26 c254 -65 868 -89 1275 -50 138 13 340 53 413 80 28 11 55 20
60 20 18 0 -4 -279 -38 -470 -57 -321 -186 -602 -337 -734 -63 -55 -163 -109
-238 -127 -41 -10 -133 -14 -350 -14 -322 1 -369 7 -474 62 -64 34 -210 181
-254 255 -134 227 -221 604 -222 955 l0 82 45 -20 c24 -11 78 -28 120 -39z
m1178 53 c-7 -2 -19 -2 -25 0 -7 3 -2 5 12 5 14 0 19 -2 13 -5z m-2383 -74
c19 -6 94 -14 165 -18 l130 -6 3 -63 c3 -58 7 -68 47 -118 24 -29 49 -63 55
-74 8 -15 21 -20 51 -20 29 0 47 -7 65 -25 22 -22 34 -25 92 -25 37 0 74 -5
82 -10 19 -12 28 -167 11 -198 -10 -19 -22 -22 -108 -24 l-97 -3 0 -60 -1 -60
85 0 c47 0 93 -2 103 -3 16 -2 17 -20 15 -269 l-3 -268 -128 -3 c-100 -2 -129
0 -133 11 -2 7 -8 81 -12 163 l-7 149 -32 -51 c-18 -27 -44 -61 -58 -74 -23
-21 -25 -31 -25 -105 0 -50 -5 -86 -12 -93 -16 -16 -219 -16 -273 0 -22 6 -43
11 -46 10 -28 -6 -156 -15 -261 -19 -155 -5 -168 0 -168 62 0 38 -4 46 -28 59
-15 8 -36 23 -46 35 -36 40 -46 28 -46 -57 0 -47 -5 -83 -12 -90 -15 -15 -235
-17 -258 -2 -20 12 -27 149 -10 190 l12 30 114 0 c63 0 114 4 114 8 0 4 -12
24 -26 43 -14 19 -29 41 -34 49 -6 11 -28 15 -84 15 -42 0 -80 5 -86 11 -9 9
-14 76 -11 156 1 33 5 38 33 46 25 6 34 16 45 47 19 57 14 69 -32 75 -46 6
-52 20 -54 122 -1 86 10 98 89 98 l59 0 36 55 c19 31 35 58 35 60 0 3 -44 5
-98 5 -63 0 -102 4 -110 12 -16 16 -16 180 0 196 17 17 249 17 266 0 7 -7 12
-38 12 -70 l0 -58 59 45 c32 24 66 56 75 70 12 18 26 25 49 26 17 0 73 9 122
19 95 21 208 20 275 -1z m695 -29 c13 -20 17 -155 6 -182 l-11 -28 -118 0
c-78 0 -122 4 -130 12 -13 13 -17 189 -5 201 11 11 251 8 258 -3z m2603 -147
c129 -79 165 -251 87 -411 -83 -169 -231 -281 -459 -346 -93 -27 -126 -32
-126 -17 0 5 14 38 30 73 l30 64 78 23 c207 60 357 208 357 353 0 63 -19 97
-75 136 -40 27 -120 30 -180 6 -23 -9 -43 -14 -46 -12 -6 7 6 113 15 127 13
20 114 41 179 37 48 -3 75 -11 110 -33z m-4278 -250 c-1 -51 -3 -64 -11 -51
-9 16 -3 118 7 118 2 0 4 -30 4 -67z m1965 -43 c-6 -9 -9 -9 -16 1 -10 17 0
34 13 21 6 -6 7 -16 3 -22z m-2214 -129 c-8 -6 -9 -10 -2 -12 7 -3 6 -13 -3
-31 -9 -16 -11 -30 -5 -33 19 -12 8 -25 -43 -50 l-53 -25 -18 22 c-24 29 -18
48 23 75 19 12 46 31 60 42 14 11 32 20 40 20 12 1 13 -1 1 -8z m2419 -390
c-1 -15 -20 -35 -27 -28 -4 5 -2 11 4 15 8 5 9 13 3 22 -15 24 -11 37 5 16 8
-11 15 -22 15 -25z m25 -40 c3 -5 0 -13 -6 -17 -7 -4 -9 -3 -5 4 3 5 0 13 -6
15 -9 4 -10 6 -1 6 6 1 14 -3 18 -8z m-45 -18 c0 -8 -12 -10 -35 -6 -26 4 -35
2 -33 -7 5 -21 -17 -22 -41 -1 -20 17 -20 20 -5 23 42 8 114 2 114 -9z m1693
-93 c213 -43 307 -85 307 -136 0 -74 -276 -148 -690 -186 -181 -16 -818 -16
-985 0 -278 27 -577 94 -647 144 -81 57 13 118 258 168 193 39 198 39 240 -7
19 -20 34 -38 34 -39 0 -1 -32 -8 -71 -14 -81 -14 -157 -44 -166 -66 -16 -42
62 -72 277 -104 374 -56 848 -50 1275 16 105 16 205 55 205 80 0 29 -106 66
-227 80 -35 3 -63 11 -63 16 0 19 65 78 85 78 11 0 87 -14 168 -30z m-1442
-89 c42 -32 108 -62 187 -83 65 -17 116 -21 333 -25 350 -7 474 13 614 99 l50
31 89 -13 c92 -13 176 -41 176 -60 0 -13 -26 -24 -120 -49 -282 -76 -1063 -81
-1419 -9 -107 21 -165 40 -175 57 -11 18 121 58 230 70 6 0 22 -7 35 -18z
m-411 -201 c115 -34 267 -62 460 -86 170 -21 703 -30 885 -15 141 12 361 37
403 46 12 3 22 1 22 -4 0 -24 -195 -191 -319 -272 -78 -52 -97 -59 -87 -33 6
16 0 14 -45 -18 -15 -10 -69 -34 -120 -53 -52 -20 -117 -52 -146 -71 -60 -41
-121 -62 -288 -97 -173 -36 -296 -55 -405 -62 -52 -3 -116 -8 -142 -12 -30 -3
-48 -2 -48 5 0 5 26 13 58 18 114 15 18 15 -149 -1 -172 -16 -314 -12 -514 15
-131 17 -558 141 -650 188 -16 8 -43 25 -60 37 -16 12 -97 56 -179 98 l-148
76 58 -55 c32 -30 62 -54 66 -54 3 0 20 -11 35 -24 31 -26 205 -104 336 -151
42 -15 77 -32 77 -36 0 -12 -6 -12 -94 11 -82 22 -209 82 -362 172 -120 71
-454 298 -454 309 0 19 32 7 92 -35 125 -87 186 -103 74 -20 -36 27 -66 52
-66 57 0 4 313 7 695 7 456 0 711 4 744 11 35 7 63 22 93 50 24 21 50 37 58
34 8 -2 62 -18 120 -35z m1830 -65 c-24 -25 -50 -33 -50 -16 0 13 41 41 59 41
10 0 8 -7 -9 -25z m-630 -520 c0 -7 -125 -68 -200 -98 -65 -26 -271 -80 -344
-91 -78 -11 -18 16 107 50 69 18 192 58 273 88 153 56 164 60 164 51z m-1685
-95 c423 -53 492 -68 290 -61 -146 5 -465 57 -465 76 0 7 -1 7 175 -15z"/>
<path d="M3270 5535 c19 -14 36 -25 39 -25 10 1 -53 50 -63 50 -6 0 5 -11 24
-25z"/>
<path d="M4718 3903 c22 -41 27 -60 26 -123 0 -47 -7 -90 -17 -115 l-17 -40
19 25 c28 35 44 111 36 162 -7 44 -52 138 -66 138 -4 0 4 -21 19 -47z"/>
<path d="M4016 3119 c-119 -16 -297 -66 -269 -76 7 -2 20 0 30 5 29 16 200 50
313 62 58 7 107 14 109 16 7 7 -111 2 -183 -7z"/>
<path d="M2680 3411 c0 -16 20 -23 46 -17 36 9 29 26 -11 26 -19 0 -35 -4 -35
-9z"/>
<path d="M2847 3413 c-14 -13 -6 -23 17 -23 33 0 57 10 50 21 -6 10 -57 12
-67 2z"/>
<path d="M3175 3410 c-4 -6 10 -10 35 -10 25 0 39 4 35 10 -3 6 -19 10 -35 10
-16 0 -32 -4 -35 -10z"/>
<path d="M3015 3400 c3 -5 19 -10 35 -10 16 0 32 5 35 10 4 6 -10 10 -35 10
-25 0 -39 -4 -35 -10z"/>
<path d="M2758 3384 c-5 -4 -8 -26 -8 -48 1 -33 3 -38 11 -23 11 19 8 83 -3
71z"/>
<path d="M2987 3383 c-10 -18 -17 -83 -9 -83 5 0 12 19 16 41 6 40 3 59 -7 42z"/>
<path d="M3090 3385 c0 -6 -4 -27 -9 -48 -7 -27 -6 -37 2 -34 15 5 28 70 16
82 -6 5 -9 5 -9 0z"/>
<path d="M3148 3377 c-12 -29 -10 -83 3 -70 6 6 9 28 7 49 -2 29 -5 34 -10 21z"/>
<path d="M3245 3354 c-6 -33 -1 -54 9 -43 10 10 17 79 8 79 -5 0 -13 -16 -17
-36z"/>
<path d="M2650 3338 c0 -32 3 -39 10 -28 13 20 13 70 0 70 -5 0 -10 -19 -10
-42z"/>
<path d="M2808 3344 c-4 -34 3 -50 16 -37 9 10 7 73 -3 73 -5 0 -11 -16 -13
-36z"/>
<path d="M2917 3348 c-4 -31 -2 -46 7 -37 10 11 17 69 8 69 -5 0 -12 -15 -15
-32z"/>
<path d="M3015 3270 c-18 -8 -17 -9 8 -9 16 -1 26 3 22 9 -3 6 -7 10 -8 9 -1
0 -11 -4 -22 -9z"/>
<path d="M2637 3248 c-15 -61 -17 -78 -7 -78 13 0 23 41 18 76 l-4 29 -7 -27z"/>
<path d="M2736 3238 c-9 -34 -7 -70 3 -64 10 7 20 86 10 86 -4 0 -9 -10 -13
-22z"/>
<path d="M2794 3225 c-7 -39 2 -58 16 -35 13 20 13 70 0 70 -5 0 -12 -16 -16
-35z"/>
<path d="M2901 3223 c-14 -49 -14 -53 4 -53 11 0 15 12 15 45 0 25 -2 45 -5
45 -2 0 -9 -17 -14 -37z"/>
<path d="M2971 3242 c-13 -25 -14 -62 -2 -62 8 0 24 71 17 78 -3 2 -9 -5 -15
-16z"/>
<path d="M3067 3221 c-4 -24 -5 -46 -2 -49 11 -11 16 8 13 49 l-3 44 -8 -44z"/>
<path d="M3125 3233 c-4 -16 -8 -36 -10 -46 -2 -11 1 -17 8 -14 13 4 28 87 15
87 -4 0 -10 -12 -13 -27z"/>
<path d="M3224 3225 c-3 -19 -3 -43 1 -52 7 -15 9 -13 15 12 11 45 11 75 0 75
-5 0 -12 -16 -16 -35z"/>
<path d="M2647 3154 c-16 -17 -5 -25 31 -22 20 2 37 8 37 13 0 12 -57 19 -68
9z"/>
<path d="M2983 3153 c-38 -7 -26 -23 18 -23 28 0 39 4 37 13 -5 13 -22 17 -55
10z"/>
<path d="M3140 3145 c-11 -13 -6 -15 35 -15 41 0 46 2 35 15 -7 8 -23 15 -35
15 -12 0 -28 -7 -35 -15z"/>
<path d="M2810 3140 c0 -5 16 -10 35 -10 19 0 35 5 35 10 0 6 -16 10 -35 10
-19 0 -35 -4 -35 -10z"/>
<path d="M4427 2796 c-37 -13 -89 -38 -116 -55 -108 -70 -199 -201 -219 -318
-9 -51 -8 -53 14 -53 19 0 25 9 39 57 26 88 54 140 108 199 168 184 462 199
650 33 54 -47 60 -69 19 -69 -15 0 -33 -5 -40 -12 -6 -6 -26 -10 -44 -10 -18
1 -45 -3 -61 -10 -22 -8 -37 -7 -74 7 l-46 18 -30 -37 c-16 -20 -38 -36 -48
-36 -10 0 -19 -4 -19 -10 0 -5 -11 -12 -25 -16 -14 -3 -25 -10 -25 -15 0 -17
-28 -9 -43 14 l-15 22 -24 -23 c-19 -17 -32 -21 -54 -16 -35 7 -45 -3 -64 -64
-19 -61 -62 -94 -114 -90 -67 5 -59 -22 25 -77 40 -26 112 -85 159 -131 48
-46 92 -84 97 -84 18 0 24 31 9 45 -12 12 -11 65 1 65 16 0 132 -84 127 -92
-4 -6 -25 -8 -48 -5 l-41 6 30 -14 c41 -19 63 -18 92 5 23 18 28 18 52 6 78
-40 120 -56 137 -49 18 6 18 6 1 -14 -27 -31 -123 -64 -203 -70 -117 -9 -223
24 -324 102 -77 60 -86 86 -35 109 6 3 3 11 -6 18 -21 17 -127 53 -135 46 -3
-3 -10 -38 -16 -78 -8 -54 -8 -74 1 -83 10 -9 18 -5 36 17 l24 30 58 -60 c60
-62 153 -115 236 -134 61 -14 204 -12 262 4 177 47 325 208 357 388 9 49 8 62
-3 69 -25 15 -34 4 -47 -61 -24 -121 -98 -248 -123 -210 -5 8 -14 32 -21 53
-11 38 -11 39 25 72 25 23 35 39 31 50 -5 12 -9 13 -14 4 -5 -6 -15 -9 -25 -6
-21 9 -10 27 16 27 10 0 19 4 19 9 0 21 -13 41 -26 41 -8 0 -14 5 -14 10 0 6
7 10 15 10 11 0 15 11 15 36 0 23 11 54 28 81 23 38 31 43 57 41 l30 -3 9 78
c5 43 5 81 2 85 -4 3 -16 1 -26 -6 -31 -19 -38 -16 -99 46 -44 45 -77 67 -137
93 -72 31 -89 34 -194 37 -101 2 -123 -1 -183 -22z m263 -393 c0 -122 -69
-213 -161 -213 -48 0 -72 33 -66 93 7 80 58 128 161 153 28 7 54 13 59 13 4 1
7 -20 7 -46z"/>
<path d="M4510 2255 c0 -8 4 -15 10 -15 5 0 7 7 4 15 -4 8 -8 15 -10 15 -2 0
-4 -7 -4 -15z"/>
<path d="M3713 2755 c0 -22 2 -30 4 -17 2 12 2 30 0 40 -3 9 -5 -1 -4 -23z"/>
<path d="M3761 2409 c-2 -30 46 -204 78 -283 59 -147 150 -280 240 -352 24
-19 45 -33 47 -31 2 1 -29 37 -69 78 -118 124 -200 285 -276 539 -10 36 -20
58 -20 49z"/>
<path d="M5149 1831 c-69 -72 -129 -108 -228 -138 -70 -22 -72 -23 -26 -17
110 13 189 56 269 145 38 43 56 70 44 69 -2 0 -28 -27 -59 -59z"/>
<path d="M2375 2853 c-131 -29 -247 -94 -326 -181 -54 -61 -127 -198 -131
-247 -3 -27 0 -30 28 -33 28 -3 31 0 47 52 61 193 274 346 482 346 164 0 324
-90 417 -234 44 -68 47 -86 15 -86 -24 0 -47 -17 -47 -35 0 -11 148 -95 167
-95 9 0 53 152 53 184 0 18 -35 22 -45 6 -14 -22 -33 -6 -80 66 -28 42 -72 96
-99 121 -57 51 -187 116 -264 132 -52 11 -177 13 -217 4z"/>
<path d="M2574 2586 c-194 -99 -270 -160 -321 -259 -37 -74 -43 -172 -13 -251
12 -32 30 -65 40 -74 10 -8 16 -20 14 -27 -8 -20 141 10 206 42 74 36 143 109
171 180 20 49 23 77 24 178 0 146 -12 256 -28 253 -7 -1 -48 -20 -93 -42z
m-133 -297 c-11 -11 -28 -33 -36 -49 -19 -37 -28 -39 -15 -5 14 38 52 85 62
79 5 -4 0 -15 -11 -25z m-79 -136 c-11 -21 -20 -42 -20 -46 -1 -16 -12 -20
-12 -5 0 18 24 79 36 91 16 16 14 -3 -4 -40z m83 -33 c-11 -5 -29 -8 -40 -8
-16 0 -15 2 5 8 34 11 60 11 35 0z"/>
<path d="M1907 2283 c-27 -55 -61 -162 -54 -170 5 -4 21 0 37 9 16 9 31 14 34
10 2 -4 22 -42 44 -84 114 -220 313 -332 559 -315 193 14 371 134 458 310 38
77 63 173 52 200 -4 10 -17 17 -31 17 -22 0 -26 -7 -40 -74 -59 -263 -330
-432 -598 -372 -137 31 -264 130 -327 255 -47 93 -47 99 -9 103 23 2 33 8 33
20 0 15 -118 118 -136 118 -5 0 -15 -12 -22 -27z"/>
<path d="M5951 2626 c30 -42 33 -54 37 -138 3 -60 8 -86 13 -73 11 29 11 104
-1 146 -12 42 -49 100 -68 107 -7 2 2 -17 19 -42z"/>
<path d="M5674 1610 c-11 -11 -62 -36 -114 -55 -113 -41 -110 -45 6 -9 77 23
147 64 133 78 -3 3 -14 -4 -25 -14z"/>
<path d="M5428 1513 c6 -2 18 -2 25 0 6 3 1 5 -13 5 -14 0 -19 -2 -12 -5z"/>
<path d="M4585 970 c-18 -8 -18 -9 5 -9 14 0 32 4 40 9 12 8 12 10 -5 9 -11 0
-29 -4 -40 -9z"/>
<path d="M4250 880 c0 -5 14 -7 33 -3 45 8 47 13 4 13 -20 0 -37 -4 -37 -10z"/>
<path d="M1550 6488 c-44 -12 -140 -79 -140 -97 0 -7 31 -57 69 -110 37 -53
85 -122 106 -153 21 -32 41 -58 46 -58 16 0 98 61 127 95 64 73 48 164 -47
268 -46 51 -104 71 -161 55z m95 -103 c43 -43 75 -104 75 -143 0 -32 -41 -78
-63 -69 -7 3 -46 51 -86 108 l-73 103 22 18 c37 30 84 23 125 -17z"/>
<path d="M5715 6391 c-46 -20 -113 -92 -141 -149 -40 -80 -15 -164 59 -204 68
-37 142 -14 216 67 78 84 100 169 61 233 -42 68 -117 89 -195 53z m125 -71
c27 -27 25 -46 -9 -106 -65 -112 -155 -155 -195 -92 -24 38 45 155 118 199 40
24 61 24 86 -1z"/>
<path d="M1273 6295 c-13 -9 -23 -23 -23 -31 0 -8 34 -50 76 -94 43 -44 74
-83 71 -86 -3 -3 -45 12 -94 33 -160 72 -151 70 -180 40 l-26 -25 24 -29 c92
-110 235 -263 245 -263 6 0 19 9 29 20 21 23 24 17 -78 133 -38 42 -64 77 -58
77 7 0 43 -16 81 -35 39 -20 92 -44 119 -55 49 -19 50 -19 75 1 14 11 26 25
26 30 0 6 -42 56 -94 112 -51 56 -111 121 -132 145 -38 41 -40 42 -61 27z"/>
<path d="M6008 6154 c-31 -16 -58 -61 -58 -97 0 -13 7 -44 16 -70 22 -64 16
-99 -18 -111 -23 -8 -32 -6 -53 14 -14 13 -29 38 -34 54 -6 25 -13 30 -31 28
-32 -3 -40 -18 -29 -55 20 -72 77 -117 146 -117 33 0 50 7 77 31 47 41 53 78
26 159 -24 72 -17 110 20 110 26 0 70 -46 70 -72 0 -16 6 -19 33 -16 41 4 46
31 15 78 -48 71 -120 97 -180 64z"/>
<path d="M932 5955 c-25 -21 -26 -26 -15 -54 20 -54 194 -331 208 -331 7 0 20
11 29 25 16 25 16 28 -5 61 -19 31 -20 39 -9 59 7 14 24 34 37 47 23 21 25 21
52 5 16 -9 36 -17 43 -17 17 0 48 31 48 47 0 6 -37 28 -82 49 -46 21 -111 53
-145 71 -122 63 -129 65 -161 38z m192 -136 c9 -8 -24 -58 -39 -59 -11 0 -85
106 -85 122 0 8 102 -43 124 -63z"/>
<path d="M6252 5968 c-17 -17 -15 -24 11 -59 l22 -31 -30 -25 c-117 -97 -215
-186 -215 -194 0 -5 9 -18 21 -30 24 -24 8 -33 157 94 56 48 109 87 118 87 8
0 26 -12 39 -27 l24 -28 22 22 c26 25 33 12 -70 131 -64 73 -78 81 -99 60z"/>
<path d="M777 5782 c-10 -10 -17 -24 -17 -30 0 -6 41 -61 91 -122 50 -61 88
-114 85 -117 -3 -3 -54 16 -113 42 -149 66 -160 68 -184 44 -36 -36 -30 -42
119 -95 53 -19 125 -46 159 -60 34 -13 71 -24 82 -24 23 0 56 43 48 63 -6 15
-189 260 -220 295 -25 27 -29 27 -50 4z"/>
<path d="M6330 5615 c-80 -57 -146 -111 -148 -120 -4 -17 95 -161 116 -170 17
-6 52 12 52 27 0 6 -18 35 -40 64 -22 29 -40 56 -40 58 0 3 19 18 42 32 l42
27 22 -26 c12 -14 29 -36 38 -49 13 -18 20 -21 34 -12 27 17 25 36 -7 84 l-30
45 27 22 c40 33 54 29 96 -28 38 -51 60 -59 79 -29 7 12 -5 36 -49 98 -32 45
-65 82 -74 82 -8 0 -80 -47 -160 -105z"/>
<path d="M556 5471 c-34 -38 -33 -40 144 -153 136 -87 169 -108 175 -108 9 0
36 61 30 70 -3 5 -27 22 -53 37 -26 15 -90 55 -142 89 -135 87 -134 87 -154
65z"/>
<path d="M6511 5360 c-84 -48 -158 -93 -164 -99 -7 -7 -5 -18 7 -36 l17 -26
62 34 c34 19 83 47 110 62 26 15 47 23 47 18 0 -5 -31 -51 -70 -103 -38 -51
-72 -101 -76 -112 -6 -19 19 -68 35 -68 5 0 54 27 109 59 55 33 122 71 148 84
27 14 58 32 68 40 19 14 19 16 3 41 -10 14 -23 26 -31 26 -7 0 -55 -27 -107
-59 -52 -33 -96 -57 -98 -55 -2 2 4 14 13 26 9 13 44 59 76 103 33 44 60 87
60 95 0 21 -28 60 -43 60 -7 -1 -81 -41 -166 -90z"/>
<path d="M478 5336 c-7 -7 -35 -58 -62 -114 -42 -85 -48 -103 -37 -116 22 -27
50 -19 68 19 9 19 21 35 26 35 6 0 70 -31 143 -70 73 -38 139 -70 147 -70 17
0 41 50 30 61 -5 5 -65 38 -133 75 -155 82 -159 85 -136 119 20 30 16 49 -13
64 -15 8 -23 8 -33 -3z"/>
<path d="M6685 5024 c-88 -41 -161 -77 -163 -79 -9 -8 16 -60 29 -63 19 -4
349 156 349 169 0 22 -21 49 -38 49 -9 0 -89 -35 -177 -76z"/>
<path d="M296 4944 c-9 -8 -16 -26 -16 -39 0 -19 10 -27 53 -43 28 -11 99 -42
157 -67 160 -72 148 -74 198 42 39 90 41 99 25 110 -31 23 -43 14 -73 -52 -27
-60 -31 -64 -52 -56 -13 5 -66 28 -118 51 -52 23 -109 48 -127 56 -28 12 -34
12 -47 -2z"/>
<path d="M6885 4909 c-27 -11 -99 -38 -160 -61 -141 -53 -143 -55 -127 -115
37 -137 123 -193 210 -137 13 8 27 26 32 40 9 23 13 25 54 19 78 -12 136 42
120 114 -9 41 -44 134 -56 148 -13 16 -10 16 -73 -8z m59 -118 c8 -30 7 -36
-13 -52 -34 -28 -59 -23 -81 14 -26 42 -26 46 13 62 48 22 70 15 81 -24z
m-154 -37 c16 -41 12 -72 -12 -88 -33 -23 -64 -19 -87 10 -32 41 -27 62 22 84
57 25 66 24 77 -6z"/>
<path d="M218 4744 c-16 -35 -4 -43 125 -83 172 -53 201 -77 163 -137 -22 -33
-46 -31 -186 16 -65 22 -126 40 -135 40 -13 0 -35 -36 -35 -59 0 -14 274 -101
317 -101 30 0 47 7 66 26 37 36 61 105 53 148 -11 60 -50 87 -192 134 -72 23
-138 42 -147 42 -10 0 -23 -12 -29 -26z"/>
<path d="M6886 4529 c-99 -27 -184 -53 -189 -58 -16 -16 44 -211 65 -211 36 1
41 15 27 84 -7 36 -10 68 -7 72 4 3 73 23 154 45 81 21 152 43 157 48 11 11
-4 64 -19 67 -5 1 -90 -20 -188 -47z"/>
<path d="M123 4388 c-51 -56 -50 -152 3 -205 45 -45 131 -77 209 -78 87 0 118
18 147 82 33 76 6 176 -40 147 -13 -9 -16 -23 -14 -61 4 -52 -10 -74 -56 -88
-26 -8 -125 11 -164 31 -60 31 -72 90 -28 134 16 16 18 25 10 40 -14 26 -42
25 -67 -2z"/>
<path d="M7000 4250 c-52 -10 -126 -24 -163 -31 -39 -7 -71 -18 -74 -26 -3 -7
3 -57 13 -111 18 -92 20 -97 44 -97 23 0 25 4 24 40 0 22 -4 56 -8 76 l-8 37
48 10 c60 13 70 6 78 -59 6 -47 8 -50 34 -47 26 3 27 5 27 67 l0 65 35 8 c48
10 56 5 64 -39 16 -94 16 -93 47 -93 35 0 36 8 11 130 -17 83 -18 85 -47 87
-17 1 -73 -7 -125 -17z"/>
<path d="M6551 4194 c0 -11 3 -14 6 -6 3 7 2 16 -1 19 -3 4 -6 -2 -5 -13z"/>
<path d="M6561 4149 c0 -13 4 -33 9 -44 7 -14 8 -8 3 20 -7 46 -13 59 -12 24z"/>
<path d="M625 2048 c-51 -18 -135 -79 -161 -117 -26 -39 -32 -106 -13 -144 30
-59 89 -97 115 -76 23 19 16 42 -21 72 -23 18 -35 36 -35 52 0 55 121 145 196
145 40 0 74 -32 74 -70 0 -19 7 -33 21 -40 49 -27 67 50 26 111 -48 71 -121
95 -202 67z"/>
<path d="M6475 1968 c-16 -6 -39 -18 -49 -27 -24 -21 -55 -89 -56 -122 -1 -98
193 -228 298 -200 70 19 122 102 108 173 -19 101 -205 210 -301 176z m124 -99
c39 -20 70 -44 86 -67 30 -44 31 -53 7 -83 -25 -30 -78 -28 -143 8 -92 50
-127 122 -77 157 32 23 57 20 127 -15z"/>
<path d="M879 1759 c-233 -81 -323 -116 -326 -125 -2 -6 4 -21 14 -33 17 -21
21 -21 65 -10 53 15 64 9 93 -45 l18 -34 -26 -32 c-33 -39 -34 -50 -4 -78 l23
-22 40 52 c21 29 75 98 120 153 101 126 98 119 80 153 -21 40 -34 43 -97 21z
m3 -86 c-11 -16 -36 -43 -56 -62 -35 -34 -36 -34 -56 -16 -31 28 -21 44 50 75
81 37 86 37 62 3z"/>
<path d="M6262 1698 c-26 -26 -11 -49 78 -119 50 -40 89 -74 87 -76 -3 -2 -56
10 -118 26 -63 17 -124 31 -136 31 -21 0 -53 -33 -53 -56 0 -6 26 -31 57 -55
32 -24 103 -79 158 -122 l100 -78 23 27 c28 32 27 34 -90 121 -49 36 -87 67
-85 69 2 2 55 -9 118 -26 141 -37 164 -38 185 -5 8 13 13 29 10 34 -4 5 -55
47 -114 92 -59 46 -125 98 -146 116 -43 36 -56 39 -74 21z"/>
<path d="M932 1454 c-78 -70 -142 -133 -142 -139 0 -12 32 -45 43 -45 4 0 32
23 62 50 30 28 59 50 65 50 5 0 24 -18 41 -40 34 -42 58 -50 79 -25 10 12 5
23 -29 62 l-40 48 31 32 c18 18 36 33 41 33 4 0 30 -24 57 -52 l49 -53 22 22
22 22 -68 78 c-37 43 -73 79 -80 81 -6 1 -75 -54 -153 -124z"/>
<path d="M6005 1380 c-11 -4 -33 -22 -49 -39 -23 -24 -30 -42 -34 -84 -5 -68
17 -115 86 -179 86 -81 155 -95 223 -47 41 29 73 99 63 142 -16 74 -83 160
-156 200 -34 18 -99 22 -133 7z m117 -95 c49 -33 98 -105 98 -144 0 -52 -43
-76 -93 -50 -61 33 -137 122 -137 162 0 57 70 74 132 32z"/>
<path d="M1128 1239 c-71 -77 -128 -146 -128 -154 0 -18 136 -140 157 -140 9
0 21 8 27 17 9 15 3 26 -37 66 -26 26 -47 52 -47 58 0 5 15 24 33 42 l33 32
30 -31 c42 -45 60 -52 78 -33 23 22 20 32 -19 67 -19 17 -35 38 -35 47 0 19
40 60 59 60 6 0 34 -21 61 -46 42 -39 52 -45 65 -34 8 7 15 20 15 30 0 16
-143 161 -159 160 -3 -1 -63 -64 -133 -141z"/>
<path d="M1362 1358 c2 -17 14 -25 51 -34 44 -11 48 -10 58 8 19 35 4 48 -56
48 -52 0 -56 -2 -53 -22z"/>
<path d="M5746 1135 c-47 -25 -127 -97 -122 -110 5 -13 166 -220 218 -279 l26
-31 58 46 c83 63 107 102 101 159 -6 55 -42 90 -91 90 -32 0 -34 2 -39 47 -9
81 -77 116 -151 78z m90 -98 c7 -22 -24 -70 -49 -75 -19 -4 -66 45 -67 69 0 9
14 23 32 32 37 18 74 6 84 -26z m96 -104 c27 -24 23 -68 -8 -92 -37 -29 -48
-27 -78 19 -32 49 -32 51 2 72 34 22 61 22 84 1z"/>
<path d="M1581 1026 c-30 -16 -50 -52 -51 -89 0 -28 -3 -31 -53 -42 -57 -12
-97 -75 -82 -132 10 -42 65 -90 113 -98 32 -5 45 -13 54 -33 8 -16 21 -27 33
-27 16 0 21 9 26 45 3 25 12 58 19 73 14 28 21 29 62 12 11 -4 20 0 28 16 11
19 10 24 -6 35 -101 68 -134 99 -134 126 0 29 30 68 53 68 22 0 37 -23 37 -56
0 -38 21 -50 44 -25 62 68 -58 174 -143 127z m-1 -201 c17 -9 30 -19 30 -23 0
-17 -63 -82 -79 -82 -29 0 -61 30 -61 57 0 56 51 78 110 48z"/>
<path d="M5465 926 c-27 -14 -66 -38 -85 -54 l-34 -29 104 -161 c63 -98 111
-162 121 -162 9 0 24 9 33 19 17 19 17 22 -19 80 -56 91 -31 107 66 41 32 -22
67 -40 77 -40 17 0 52 28 52 42 0 4 -32 26 -70 50 l-70 43 6 41 c11 72 -34
136 -104 150 -17 3 -44 -4 -77 -20z m95 -78 c27 -30 25 -62 -6 -87 -15 -12
-30 -21 -34 -21 -13 0 -71 83 -67 95 5 13 47 35 69 35 10 0 26 -10 38 -22z"/>
<path d="M2022 787 c-5 -6 -47 -86 -92 -177 l-82 -164 22 -18 c30 -24 37 -23
58 11 9 16 29 50 44 75 l28 47 37 -20 c69 -37 68 -31 28 -112 l-37 -73 22 -18
c12 -10 26 -18 31 -18 13 0 38 43 122 208 70 138 71 143 53 157 -37 28 -54 18
-86 -45 -17 -34 -37 -60 -46 -60 -16 0 -94 37 -94 45 0 3 14 32 30 65 17 33
30 64 30 69 0 6 -13 17 -29 25 -23 12 -31 13 -39 3z"/>
<path d="M5172 760 c-12 -5 -25 -17 -29 -26 -3 -9 9 -91 26 -182 18 -92 35
-179 37 -194 4 -18 12 -28 24 -28 28 0 45 29 45 79 0 44 2 47 45 68 l44 23 32
-31 c26 -25 38 -30 59 -25 14 4 28 13 31 21 6 15 -262 306 -281 304 -5 0 -20
-4 -33 -9z m103 -150 l45 -55 -21 -17 c-38 -32 -55 -23 -68 35 -6 28 -14 63
-18 76 -9 36 11 23 62 -39z"/>
<path d="M4900 632 c-19 -9 -45 -32 -57 -51 -48 -71 -18 -217 61 -296 48 -47
90 -60 146 -45 43 11 103 72 98 98 -5 27 -43 26 -72 -2 -50 -51 -112 -27 -152
58 -48 102 -25 186 51 186 25 0 37 6 46 22 24 44 -54 64 -121 30z"/>
<path d="M2340 618 c-40 -94 -92 -240 -97 -274 -11 -79 55 -144 148 -144 65 0
95 39 158 200 l52 135 -21 17 c-12 10 -28 18 -35 18 -12 0 -41 -67 -91 -208
-10 -29 -26 -62 -37 -72 -37 -41 -97 -12 -97 46 1 16 23 83 50 149 l49 120
-21 18 c-27 23 -46 22 -58 -5z"/>
<path d="M2677 513 c-3 -4 -26 -91 -52 -192 -34 -134 -43 -186 -35 -191 23
-14 190 -52 205 -46 8 3 15 16 15 29 0 21 -8 26 -65 42 -36 9 -67 20 -70 24
-2 4 1 26 7 49 12 47 23 50 90 30 33 -10 41 -9 49 3 21 33 10 48 -46 64 -58
17 -64 27 -49 83 7 26 29 28 99 7 46 -14 51 -14 63 2 24 33 9 47 -73 70 -114
32 -132 35 -138 26z"/>
<path d="M4440 476 c-58 -15 -86 -27 -88 -38 -4 -20 77 -360 88 -372 5 -5 38
-2 77 8 147 37 143 35 143 62 0 34 -20 39 -93 21 -34 -9 -65 -13 -69 -9 -3 4
-11 25 -17 47 -13 47 -2 60 60 70 45 8 53 17 44 52 -5 20 -10 24 -28 19 -12
-3 -40 -9 -63 -12 l-41 -6 -11 41 c-10 40 -9 43 15 52 13 5 27 9 31 9 4 0 24
5 45 11 33 9 38 14 35 37 -4 35 -21 36 -128 8z"/>
<path d="M2966 438 c-6 -20 -66 -362 -66 -374 0 -11 143 -44 191 -44 19 0 28
6 32 22 9 31 3 36 -64 49 -34 7 -63 18 -66 25 -4 10 26 216 41 287 8 34 -58
68 -68 35z"/>
<path d="M4071 409 c-29 -4 -58 -12 -63 -17 -11 -11 26 -328 43 -370 9 -22 13
-23 62 -17 28 4 76 17 105 31 69 30 96 85 90 178 -9 150 -89 216 -237 195z
m111 -79 c44 -34 62 -153 33 -210 -18 -35 -73 -56 -91 -34 -12 15 -46 243 -38
256 10 15 72 8 96 -12z"/>
<path d="M3239 398 c-5 -17 -35 -376 -31 -385 3 -9 35 -13 113 -13 101 0 109
1 109 19 0 27 -16 35 -80 41 l-55 5 0 60 c0 33 4 108 9 168 l8 107 -36 0 c-20
0 -36 -1 -37 -2z"/>
<path d="M3599 383 c-11 -3 -32 -57 -67 -176 -28 -95 -54 -180 -57 -189 -6
-15 -1 -18 34 -18 36 0 41 3 47 28 10 42 23 52 68 52 52 0 62 -7 71 -48 6 -29
10 -32 46 -32 21 0 39 3 39 6 0 29 -106 362 -118 372 -16 12 -33 14 -63 5z
m49 -157 c16 -87 17 -86 -23 -86 -25 0 -35 4 -35 16 0 14 16 90 26 122 8 28
21 8 32 -52z"/>
</g>
</svg>
